<svg xmlns="http://www.w3.org/2000/svg" viewBox="0 0 407.71 49.42"><g id="Layer_2" data-name="Layer 2"><g id="Layer_1-2" data-name="Layer 1"><path d="M17.05,36.26C15.43,38.2,12.3,39.49,9,39.49c-4,0-9-2.69-9-8.58,0-6.31,5-8.2,9-8.2,3.45,0,6.52,1.08,8.09,3V22.44c0-2.26-1.94-3.77-5.29-3.77a11.63,11.63,0,0,0-7.39,2.75l-3-5.23a18.4,18.4,0,0,1,11.82-4.05c6.26,0,12.14,2.32,12.14,10.41v16.3H17.05Zm0-6.42C16.19,28.65,14.24,28,12.41,28c-2.21,0-4.16,1-4.16,3s1.95,3,4.16,3c1.83,0,3.78-.64,4.64-1.88Z"/><path d="M43.39,12.14c5.61,0,9.12,2.48,10.68,4.8l-5.39,5a5.71,5.71,0,0,0-4.91-2.48c-3.45,0-6.1,2.37-6.1,6.31s2.65,6.37,6.1,6.37a5.87,5.87,0,0,0,4.91-2.54l5.39,5.07C52.51,37,49,39.49,43.39,39.49c-8.14,0-14.24-5.5-14.24-13.7S35.25,12.14,43.39,12.14Z"/><path d="M69.84,12.14c5.61,0,9.12,2.48,10.69,4.8l-5.4,5a5.69,5.69,0,0,0-4.91-2.48c-3.45,0-6.1,2.37-6.1,6.31s2.65,6.37,6.1,6.37a5.86,5.86,0,0,0,4.91-2.54l5.4,5.07C79,37,75.45,39.49,69.84,39.49c-8.14,0-14.24-5.5-14.24-13.7S61.7,12.14,69.84,12.14Z"/><path d="M95.92,12.14c7.72,0,13.33,5.67,13.33,14.51v1.78H90.68c.49,2.43,2.76,4.64,6.64,4.64a10.3,10.3,0,0,0,6.37-2.21L107.2,36c-2.59,2.32-6.91,3.45-10.9,3.45-8,0-14.25-5.23-14.25-13.7A13.45,13.45,0,0,1,95.92,12.14ZM90.58,23h10.73a5,5,0,0,0-5.39-4.48A5.14,5.14,0,0,0,90.58,23Z"/><path d="M114.06,29.78a16.22,16.22,0,0,0,9.17,3.45c2.49,0,3.51-.8,3.51-1.94,0-1.35-1.78-1.83-4.48-2.26-4.42-.76-10.68-1.68-10.68-8.31,0-4.59,3.94-8.58,11.17-8.58a18.37,18.37,0,0,1,10.9,3.45l-3.19,5.51a11.59,11.59,0,0,0-7.66-2.86c-1.94,0-3.29.64-3.29,1.78s1.4,1.62,4.16,2.1c4.42.75,11,1.84,11,8.74,0,5-4.37,8.63-11.87,8.63-4.64,0-9.44-1.56-12.19-4Z"/><path d="M139.65,29.78a16.22,16.22,0,0,0,9.17,3.45c2.48,0,3.51-.8,3.51-1.94,0-1.35-1.78-1.83-4.48-2.26-4.42-.76-10.68-1.68-10.68-8.31,0-4.59,3.94-8.58,11.17-8.58a18.37,18.37,0,0,1,10.9,3.45l-3.19,5.51a11.59,11.59,0,0,0-7.66-2.86c-1.94,0-3.29.64-3.29,1.78s1.4,1.62,4.15,2.1c4.43.75,11,1.84,11,8.74,0,5-4.37,8.63-11.87,8.63-4.64,0-9.44-1.56-12.19-4Z"/><path d="M163.4,4.75a4.75,4.75,0,0,1,9.5,0,4.75,4.75,0,0,1-9.5,0Zm.6,8h8.3V38.85H164Z"/><path d="M178.35,2.86h8.31v13a9.61,9.61,0,0,1,7.72-3.72c6.47,0,11.49,5.12,11.49,13.65,0,8.85-5.07,13.7-11.49,13.7a10,10,0,0,1-7.72-3.66v3h-8.31Zm13.28,29.3c3.29,0,5.77-2.43,5.77-6.37s-2.48-6.31-5.77-6.31a6.67,6.67,0,0,0-5,2.37v8A6.62,6.62,0,0,0,191.63,32.16Z"/><path d="M209.66,4.75a4.75,4.75,0,0,1,9.5,0,4.75,4.75,0,0,1-9.5,0Zm.6,8h8.31V38.85h-8.31Z"/><path d="M224.62,2.86h8.31v36h-8.31Z"/><path d="M238.38,4.75a4.75,4.75,0,0,1,9.5,0,4.75,4.75,0,0,1-9.5,0Zm.59,8h8.31V38.85H239Z"/><path d="M255.06,31.83V20h-4.32V12.79h4.32V5.66h8.26v7.13h5.28V20h-5.28v9.49a2.37,2.37,0,0,0,2.32,2.65,3.25,3.25,0,0,0,2.1-.65l1.62,6.26c-1,1-3.08,1.72-6.15,1.72C257.92,39.49,255.06,36.85,255.06,31.83Z"/><path d="M275.47,42.08c1.88,0,3.07-.37,3.5-1.45l.59-1.41L269.21,12.79H278l5.88,16.51,5.93-16.51h8.8L286.8,42.57c-2.11,5.5-6.05,6.74-11,6.85a16.77,16.77,0,0,1-3.56-.43l1.18-7.39A4.68,4.68,0,0,0,275.47,42.08Z"/><path d="M303.91,34.64A2.43,2.43,0,0,1,306.34,37a2.49,2.49,0,0,1-2.43,2.43A2.45,2.45,0,0,1,301.54,37,2.39,2.39,0,0,1,303.91,34.64Z"/><path d="M331.81,21.1c0-5-2.53-6.42-6.31-6.42A11.16,11.16,0,0,0,317,19.15v19.7h-2.8v-36H317V16.72a13.23,13.23,0,0,1,9.39-4.58c5.29,0,8.2,2.48,8.2,8.36V38.85h-2.81Z"/><path d="M341.87,25.79c0-7.61,4.91-13.65,12.51-13.65S367,18.18,367,25.79s-4.85,13.7-12.57,13.7S341.87,33.4,341.87,25.79Zm22.06,0c0-5.77-3.4-11.11-9.55-11.11s-9.49,5.34-9.49,11.11S348.34,37,354.38,37,363.93,31.62,363.93,25.79Z"/><path d="M389.25,16.56l-7.33,22.29h-2.7l-8.47-26.06h3l6.9,22.12L388,12.79h2.43l7.34,22.12,6.9-22.12h3l-8.47,26.06h-2.7Z"/></g></g></svg>