<svg xmlns="http://www.w3.org/2000/svg" viewBox="0 0 1171.85 457.88"><defs><style>.cls-1{fill:#145a60;}.cls-2{fill:#4f1127;}.cls-3{fill:#155a5f;}.cls-4{fill:#bf9d4d;}.cls-5{fill:#ae5a3b;}.cls-6{fill:#be9c4d;}.cls-7{fill:#4f1227;}.cls-8{fill:#5d724a;}.cls-9{fill:#5d7249;}.cls-10{fill:#be9d4d;}.cls-11{fill:#a5b3b0;}.cls-12{fill:#b73c34;}.cls-13{fill:#2c2929;}.cls-14{fill:#155b60;}.cls-15{fill:#dc9d7a;}.cls-16{fill:#2b2728;}</style></defs><g id="Layer_2" data-name="Layer 2"><g id="Layer_1-2" data-name="Layer 1"><path class="cls-1" d="M106.57,184.82c7.55,8.19,8.27,18.25,9.3,28.15.81,7.77,1,15.61,2,23.34,1.66,12.53,8.25,22.61,16.94,31.44a12.91,12.91,0,0,0,11.38,3.85,42.83,42.83,0,0,1,5.31,0c2.75,3.42,2.66,7.28,2.61,11.09,0,2.38-1.52,3.42-3.81,3.79-11.77,1.9-22-.72-30.52-9.53C108.38,265.18,102.6,251,101.09,235c-.67-7.1-.64-14.27-.62-21.41a36.08,36.08,0,0,0-3.36-15.44c-2.34-5-6.11-6.89-11.67-5.84-4.08.77-8.16,1.55-12.26,2.25a65.17,65.17,0,0,1-32-2.75c-1.06-.36-2.17-.56-3.61-.92-7.49,25.5-13.84,51-21.39,76.11-5.85,1.55-10.75.89-16.21-1.12A49.23,49.23,0,0,1,.91,260Q16.1,206.1,31.38,152.24C36,136,40.62,119.68,45.06,103.36c1.49-5.45,4.3-9.68,9.25-12.39,19.63-10.74,40.34-15.45,62.46-10,13.35,3.29,24.06,10.42,29.41,23.81,4.28,10.74,3.78,21.58-.45,32.09-7.48,18.6-18.83,34.31-35.78,45.56C109,183.08,108.06,183.77,106.57,184.82Zm-64.86-9.43c2,1,3.52,1.92,5.17,2.59a42.22,42.22,0,0,0,23.06,2.41c14.46-2.44,27.75-7.91,39-17.62,12-10.29,20.71-22.52,22.45-38.66,1-9.59-1.93-18.35-10-23.56-13.91-9-29.08-10.84-44.67-4.08-3.79,1.65-7.29,4-11,5.85a9.26,9.26,0,0,0-5,6.36c-2.27,8.49-4.87,16.89-7.27,25.34C49.57,147.56,45.75,161.12,41.71,175.39Z"/><path class="cls-2" d="M247.21,445.07c-2.23,0-3.72,0-5.2,0-5.25-.13-8.31-2.59-10.2-7.72-13.48-36.73-27.23-73.37-40.9-110-.62-1.67-1.34-3.29-2.36-5.77-.83,1.9-1.36,2.87-1.68,3.9q-11.56,36.51-23.1,73A200.14,200.14,0,0,1,148.28,434a54.21,54.21,0,0,1-17,18.61c-13.32,9.22-32.39,6-42.23-7.14C90.31,441,93.45,438,100,435l3.44,2.18c10.72,6.71,16.39,5.33,24.06-2.14,7-6.8,11.88-15.07,15.56-24.12,11.71-28.77,20.35-58.56,29.78-88.09,2.72-8.53,5.36-17.09,8.13-25.61a48.73,48.73,0,0,1,2.33-5.29,10.54,10.54,0,0,1,1.7-.48c11.45-.28,11.26-.17,15,10.58q18,51.44,36.22,102.74c.93,2.64,1.95,5.24,3,8.08,2.23-1.41,2.1-3.58,2.62-5.36q16.55-56.58,33-113.19c.77-2.64,1.88-5.18,2.81-7.71,5.65-.42,10.46-.08,15.42,2.78-.54,2.71-.83,5.32-1.57,7.81Q275.52,351.6,259.34,406c-3.2,10.81-6.35,21.64-9.6,32.44C249.09,440.57,248.13,442.66,247.21,445.07Z"/><path class="cls-3" d="M994.81,273.64a22.16,22.16,0,0,1,2.7-.31c12.92.42,10.55.39,13.9,9.95,12.63,36,25.46,71.92,38.23,107.86.36,1,.93,2,1.78,3.76.79-2.06,1.39-3.34,1.78-4.67q17-58,33.91-116c.38-1.28.73-2.56,1.22-3.79a3.74,3.74,0,0,1,4.39-2.46c2.63.4,5.27.77,7.85,1.38,4,.95,4.69,2,3.62,6-1.93,7.2-4.07,14.36-6.19,21.51q-18.37,61.76-36.79,123.51c-.38,1.27-.75,2.55-1.21,3.79-.79,2.15-2.2,3.19-4.63,2.65-2.9-.64-5.85-1.12-9.35-1.78q-22.73-60.51-45.52-121.22h-.93c-.77,2.36-1.56,4.73-2.32,7.1C988.89,336.93,980.76,363.06,972,389c-2.84,8.44-7,16.47-10.93,24.52a55.91,55.91,0,0,1-15.82,19c-10.92,8.76-23.2,9.75-35.23,2.57-3.64-2.17-7.5-4.28-9.87-8.44,2.9-4.49,6.35-8.11,11.52-10.24,1.26.87,2.52,1.65,3.68,2.55,6.88,5.29,13.53,5.61,20.55.44,9.31-6.84,15-16.49,18.81-27,7.81-21.51,15.21-43.17,22.48-64.86,5.53-16.51,10.58-33.18,15.88-49.77C993.55,276.39,994.22,275.08,994.81,273.64Z"/><path class="cls-4" d="M978.08,216.12c5,2.06,9.45,3.8,13.8,5.7a6.91,6.91,0,0,0,6.68-.58c3.45-2.24,7-4.56,9.79-7.53a65.68,65.68,0,0,0,14.07-23.27c5.43-15.31,11.47-30.4,16.54-45.82,7.09-21.56,13.53-43.32,20.25-65,.29-1,.61-1.89,1-2.82,1.58-4.33,3.07-5.28,7.43-4.75,8.14,1,7.94,1,10.7,9,9,26,18.25,51.91,27.4,77.85q5.37,15.24,10.77,30.47c.49,1.38,1.15,2.69,2.12,4.94,1-2.55,1.72-4.25,2.24-6q16.74-57.48,33.46-115a38.67,38.67,0,0,1,1.67-4.15,3.47,3.47,0,0,1,4-2.16c2.64.34,5.28.62,7.88,1.14,3.72.75,4.64,2.22,3.55,6-3.18,11.15-6.47,22.27-9.74,33.39q-13.34,45.28-26.68,90.55-3.32,11.21-6.78,22.35c-.53,1.7-1.38,3.31-2.13,5.07-2.59,0-4.91.17-7.19,0-3.79-.35-6.24-2.25-7.64-6q-20.6-55.73-41.43-111.38c-.62-1.66-1.36-3.28-2.55-6.13-1.32,4-2.29,6.92-3.22,9.84-5.71,17.82-11.59,35.6-17.07,53.5-4.61,15.09-9.73,29.93-16.83,44.06-5,9.85-11.45,18.22-20.64,24.46-13.79,9.36-30.28,4.21-40-5.44-1.49-1.47-1.91-3-.7-4.89C970.29,221.16,975.9,216.91,978.08,216.12Z"/><path class="cls-5" d="M621.84,280.38c5.63.3,10.83-1,15.63,2.13a33.5,33.5,0,0,1,0,5.13c-4.06,25.71-6.51,51.7-13,77-3.86,15-9.32,29.43-18.63,42.08a56.88,56.88,0,0,1-14.92,14.55c-11,7-22.75,7.48-35,4.35-21-5.35-35.4-24.3-34.08-47.22.43-7.62.88-15.26,1.74-22.84,1.16-10.2,2.66-20.37,4.12-30.54,1.62-11.32,3.34-22.63,5-33.95.61-4.1,1.22-8.2,2-12.28.58-3.14,1.94-4.37,5.12-4.21a72.5,72.5,0,0,1,10.37,1.26c2.83.54,3.93,2.1,3.53,5.61-.63,5.6-1.9,11.12-2.6,16.71q-3.39,27.15-6.54,54.34c-.88,7.59-1.44,15.21-2.11,22.81a53.54,53.54,0,0,0,2.36,20.16c2.86,9.6,14.86,16.81,25.76,15.65,9.71-1,17.34-5.43,22.55-13.76,6.65-10.65,11-22.3,14.43-34.29,3.75-12.95,5.38-26.28,7.13-39.61,1.68-12.83,3.81-25.59,5.79-38.37A40.34,40.34,0,0,1,621.84,280.38Z"/><path class="cls-6" d="M645.42,367.53c4.11,0,7.91-.19,11.68.07,2.23.16,3.36,1.8,3.46,4.16.19,4.3.68,8.6.74,12.9.06,4.52,2.16,7.8,5.31,10.79,6.73,6.4,14.78,7.05,23.28,5.45a50.71,50.71,0,0,0,9.49-2.91,26.32,26.32,0,0,0,15.24-31.91c-2.56-8.9-7.41-16.62-11.67-24.67-5.59-10.55-11.61-20.94-16.16-31.94-5.75-13.89-5.55-28.05,3.71-40.68,7-9.57,16.78-14.77,28.87-15.41a64.17,64.17,0,0,1,33.17,7.19c12.09,6.15,20.42,23,18.22,36.48-1,5.8-2.37,11.29-5.82,16.34-5.09.38-8.88-2.49-13.48-4.51.09-1.59-.25-3.36.33-4.74,2.38-5.6,1.91-11.45,1.63-17.21a14.06,14.06,0,0,0-2.61-7.33c-9.68-13-28.24-14.89-39.6-6.24-8.56,6.52-10.72,16.09-9.4,26.4a33.79,33.79,0,0,0,5.37,13.81c4.17,6.59,8.35,13.19,12.23,19.95,7.2,12.52,12.06,25.84,12.13,40.49.09,18.77-9.32,32.62-26.87,39-6.18,2.25-12.74,4.35-19.21,4.65-5.93.28-12.2-1.29-17.93-3.2q-20.5-6.87-23.3-28.76C643.47,379.64,643.19,373.88,645.42,367.53Z"/><path class="cls-7" d="M514,146.7a46,46,0,0,1-2.38,19.5c-5.73,16.67-14.19,31.52-29.5,41.38-22.45,14.46-55.18,15.19-78.19-8.32-8.82-9-13.46-20.16-15.05-32.43-2.59-19.92,4.1-37.34,16.14-52.81,11.71-15,27.37-23.74,46.4-25.09,36.46-2.57,57.06,21,61.92,48.17C513.82,140,513.72,143.07,514,146.7Zm-14.08,2c-.35-3.13-.59-6.28-1-9.39-3.68-25.12-27.38-41.1-52-34.82-20.81,5.31-33.72,19.09-40.23,39.08-2.95,9-3.29,18.34.37,27.35a49.71,49.71,0,0,0,20.85,24.72c9.41,5.61,19.54,8.3,30.55,5.91,7.32-1.59,13.5-5.54,19.31-10C491.75,180.81,498.74,166.32,499.88,148.74Z"/><path class="cls-8" d="M966,73.48c26.83.39,48.76,19.93,52.39,47.14,4.39,32.86-16.61,65.28-44.93,75.59-21.36,7.78-45.15-.54-57.62-17-10.12-13.32-14.13-28-11.7-44.45.61-4.1,1-8.23,1.67-12.33C909,101.62,929.15,79,955.62,74.9,959.06,74.36,962.52,74,966,73.48Zm4,15.09a44.68,44.68,0,0,0-23.46,6.27C925.79,107.45,915,135.32,922,158.64c7.07,23.64,29.41,31.32,49.49,21.59,15.71-7.62,24.57-21,28.71-37.49,3.16-12.61,2.54-25.05-4.2-36.62C989.58,95.14,980.3,88.75,970,88.57Z"/><path class="cls-7" d="M951.69,330.45c.43,25.81-17.43,60.1-50.7,68.11-19.78,4.76-36.78-.92-50.46-16.05C838.33,369,834.62,353,836.78,335.29c.52-4.28,1.34-8.53,2-12.79,3.18-20.38,24.74-42.6,47.7-46.16,18.71-6.7,45.65,6.34,55,19.81C947.67,305.14,951.44,316.76,951.69,330.45Zm-17,3.73c-.13-12.17-1.74-21-6.8-28.69-5.81-8.84-13.82-15.06-24.67-15.82-9.69-.67-18.68,2.17-26.73,7.85-18,12.7-27.53,36.78-22.95,58.32,5.51,25.91,30.24,37.37,53.19,24C925.19,369.15,933.47,352,934.73,334.18Z"/><path class="cls-9" d="M419.14,338.4,407.7,339c-.65-2.77-1.23-5.12-1.74-7.48-.42-1.94-.66-3.93-1.13-5.85-3.86-15.79-13.46-23.79-29.71-24.36-8.3-.3-16.61-.22-24.58,2.9-6.23,2.44-11.64,6.06-15.32,11.53-13.5,20-20,42.1-15.27,66.12,2.95,15,12.32,26.22,26.86,31.74,12,4.54,23.34,1.88,32.91-6.68,3.43-3.07,6.25-6.88,9.11-10.53,3.66-4.66,4.34-4.94,9.44-2.27,7.85,4.11,8.07,4.9,3.32,12.31-8.77,13.68-20.72,22.67-37.07,25.3-12.11,1.94-23-1.56-33.45-7.19C315.34,416,306.9,402,302.94,385.25c-5.68-24.05-.88-46.74,10.54-68.29,7.76-14.64,20.3-23.71,35.56-28.7,22.73-7.44,43.3-3.05,60.83,13.59,8.85,8.41,11.57,19.09,10.8,30.89C420.56,334.48,419.76,336.18,419.14,338.4Z"/><path class="cls-10" d="M186.85,180.26c18.68,3.09,37.21,3.56,56.09,6.59-.49,4.38-.71,8.13-1.4,11.79-.37,2-2.31,2.16-4.07,2-5-.44-9.93-.86-14.88-1.36-8.42-.85-16.83-1.78-25.25-2.63-4.1-.42-8.21-.75-13-1.19-4.15,14.73-6.05,29.61-9.44,44.53,1.1.55,2,1.37,3,1.47,10.89,1.11,21.81,2.06,32.71,3.15,5.44.55,10.87,1.25,16.29,2a16.31,16.31,0,0,1,3.35,1.37c-.55,3.87-.82,7.82-1.74,11.61-.58,2.4-3,2.88-5.3,2.68-15.22-1.3-30.43-2.56-45.64-3.9-5.29-.46-10.58-1-15.84-1.68-5.63-.74-6.7-2.34-5.59-8q1.92-9.73,3.92-19.47,7.45-36.49,14.92-73c1.69-8.28,3.16-16.59,4.88-24.86,1.3-6.23,2.15-7,8.31-6.63,8,.53,15.86,1.51,23.79,2.31l16.33,1.68c6.94.71,13.88,1.33,20.8,2.15,3.69.45,4.8,2,4.67,5.73,0,.5,0,1-.11,1.49-1,7.33-1.84,7.89-9.35,6.95-4.61-.57-9.26-.81-13.89-1.17q-14.91-1.17-29.81-2.27c-1.8-.13-3.61,0-6,0C192.05,154.34,189.53,166.9,186.85,180.26Z"/><path class="cls-11" d="M627.35,96.37c5.42-3.06,10.48,0,16.48.88-.53,4.57-.84,8.47-1.47,12.31-1.83,11.22-3.93,22.4-5.64,33.63-.77,5.06-.82,10.22-1.25,15.33-.22,2.63-.93,5.28-.76,7.87.47,7.08.3,14.41,2.2,21.13,2.9,10.31,16.14,22.4,30.28,19.68,11.21-2.16,18.28-8.15,23.18-17.45a153.62,153.62,0,0,0,16.23-50.21c1.62-11.25,3.85-22.41,5.95-33.59.28-1.48,1.34-2.81,2.19-4.5L726.09,103a6.33,6.33,0,0,1,1.85,6.07c-1.41,8.28-2.32,16.65-3.5,25-2.5,17.54-6.38,34.71-13.62,51-4.57,10.27-10.5,19.55-18.65,27.31C682,222.16,669.83,225,656,223a44.86,44.86,0,0,1-25.11-12c-7.82-7.35-13.16-16.22-13.32-27.37-.14-10-.37-20,.17-29.91a215.65,215.65,0,0,1,3.1-25C622.63,118.19,625,107.75,627.35,96.37Z"/><path class="cls-5" d="M284.8,124.06c9.11,31.57,16.11,62.69,25,93.56,18.41-30.41,35.57-61.37,53.34-92,5.11.09,8.78,2.47,12.22,4.91,2.36,1.67,1.25,4.24.1,6.34-3.28,6-6.63,11.89-10,17.83l-49.47,88.18c-3,5.34-9.24,7.71-14.72,4.94-1.59-.8-2.78-3.21-3.32-5.11-2.19-7.82-4.06-15.73-6-23.6q-10.67-42.43-21.34-84.87c-1.37-5.44-.72-6.76,4.66-8.28C278.09,125.21,281,124.82,284.8,124.06Z"/><path class="cls-12" d="M753.82,218.4c9.92-44.76,19.67-88.71,29.57-133.35-4.48-.39-8.35-.77-12.23-1q-9.43-.69-18.9-1.26c-6.92-.42-8.53-2.37-7.35-9.13.23-1.3.53-2.59.91-4.46a29.77,29.77,0,0,1,5.57-.69c9,.49,17.92,1.14,26.88,1.76,7.46.51,14.92,1.09,22.39,1.59q22.4,1.47,44.79,2.89c1,.07,1.94.32,3,.51,1.83,3.54,1.2,7.18.51,10.7-.5,2.6-2.72,3.09-5.07,2.94-8.46-.54-16.92-1-25.38-1.62-5.77-.39-11.53-.85-17.84-1.33-1.09,4.09-2.21,7.86-3.1,11.67q-11.88,50.87-23.68,101.73c-1.2,5.17-2.2,10.39-3.47,15.53-1.23,5-2.77,5.91-7.84,5.11C759.94,219.52,757.27,219,753.82,218.4Z"/><path class="cls-13" d="M257.43,90.58c5.87-3.41,11.63-7,17.65-10.13a24.39,24.39,0,0,1,8.15-2.11c5.11-.64,8,2.34,7.22,7.42-.64,4.27-1.76,8.47-2.39,12.73-.37,2.5-1.63,5.14.44,8.17a35.38,35.38,0,0,0,4.25-2.24C299.37,99.67,306.06,95,312.44,90A19.46,19.46,0,0,0,317.87,83c4.92-10.78,13.35-16.62,24.76-18.67a12.77,12.77,0,0,1,13.5,5.43c3.26,4.47,2.91,9.22.05,13.51a22.44,22.44,0,0,1-7,6.81c-7.75,4.52-16.13,7-25.29,5.77a15.91,15.91,0,0,0-2.49-.09,7.54,7.54,0,0,0-1.4.49c0,4.73.75,9.33,4.32,13,3.39,3.45,10.27,3.73,15.39.73,2.43-1.42,4.7-3.13,7.1-4.63,1.77-1.11,3.43-1.33,4.57,1.66-4.35,5.23-9.94,8.85-16.92,9.66-9.91,1.17-16.15-3.43-18.61-13.21-.64-2.53-.95-5.15-1.52-8.34-1.69,1.06-3.23,1.92-4.66,2.94-5.14,3.68-10.18,7.5-15.38,11.07-2.74,1.89-5.81,3.91-9.16,1.55-3.12-2.21-3.1-5.7-2.59-9.07s1.42-6.83,1.92-10.28c.36-2.53.33-5.11.54-8.68-3.76,1-6.69,1.53-9.34,2.66a62.54,62.54,0,0,0-21.78,15.48C251,104,248,107,245.29,109.72c-3.83-1-4-2.73-2.79-5.09,2.32-4.4,4.56-8.85,7-13.19C254.68,82.16,260,73,265.19,63.7c.79-1.39,1.45-2.84,2.46-4.81l-39,2.68c-.74,1.3-1.7,2.81-2.49,4.42q-8.08,16.53-16.12,33.11c-1,2.05-1.71,4.51-4.84,3.35-1.49-2.66.06-4.71,1-6.72,4.54-9.6,9.21-19.14,13.82-28.7.71-1.46,1.4-2.93,2.46-5.18-11.86-.47-22.64.17-31.75,8.06A11,11,0,0,1,189,68.82a5,5,0,0,1-.72-1.32c1.51-3.49,4.44-5.31,7.69-6.71a61.74,61.74,0,0,1,24.32-4.7c4.42,0,6.61-1.83,8.46-5.41C232.7,43,236.9,35.46,241,27.89a15.71,15.71,0,0,1,2.46-3.72c1.62-1.62,3.22-1.49,4.42,1.14-4.77,10-11.27,19.44-16.09,30.52,4.34,0,7.81.23,11.23,0,8-.65,15.88-1.66,23.84-2.29,3.7-.29,6-2.05,8-5.08q7.74-11.92,16-23.51c6-8.46,12.55-16.47,21.69-21.73A25.71,25.71,0,0,1,322.27.08c5.07-.56,8.42,2,9.31,7a22.49,22.49,0,0,1-.37,9.31C328.19,28,321,36.69,311,43.09A97.16,97.16,0,0,1,280.8,55.8a13.26,13.26,0,0,0-9.39,7.25c-4.79,8.91-9.93,17.62-14.93,26.42l-1,1.82.61.43Zm21.73-40.07c12.58-1.42,30.88-10.62,38.39-19.29,4.95-5.7,9-11.92,9.47-19.79.16-2.42-.06-4.64-2.24-6.2-4.46-1.19-8.09.61-11.53,3.15C298.33,19.41,289.78,35.49,279.16,50.51ZM321.23,90a20.52,20.52,0,0,0,3.66,1,36.36,36.36,0,0,0,24.05-6.43A11.42,11.42,0,0,0,352.56,80c2.49-5.39-.55-10.08-6.51-10.35C334.17,69.05,323.55,77.65,321.23,90Z"/><path class="cls-8" d="M590.93,220.27c-.45,3.91-.91,7.31-1.23,10.73-.27,2.77-1.88,3.71-4.41,3.51-3.65-.29-7.29-.63-10.93-.95-15.72-1.4-31.45-2.73-47.16-4.25-2.85-.28-5.62-1.34-8.72-2.11.29-2.36.38-4,.71-5.57q14.2-68.15,28.47-136.28c1-4.79,1.8-5.53,6.64-5.4,2.65.07,5.29.42,7.92.73s3.66,2.1,3.42,4.57a33.16,33.16,0,0,1-.92,4.36c-5.71,24.53-11.54,49-17.1,73.6-3.44,15.2-6.46,30.48-9.63,45.74-.33,1.58-.36,3.23-.6,5.5,9.24.93,18.13,1.64,27,2.76C573,218.31,581.84,217.76,590.93,220.27Z"/><path class="cls-14" d="M458.11,290.93l15.59,1.47a50.75,50.75,0,0,1-.56,6.1c-5.6,24.76-11.37,49.48-16.86,74.27-2.68,12.14-4.86,24.4-7.34,36.9,6.51,2.29,13,1.94,19.38,2.5,10.27.89,20.58,1.44,30.87,2.16a14.66,14.66,0,0,1,2.34.58c1.29,4.19.47,8.43-.37,12.58-.42,2.09-2.45,2.45-4.44,2.27q-22.37-2-44.74-4-7.46-.66-14.88-1.58c-2.06-.26-4.07-.9-6.21-1.39,0-2.27-.28-3.95.05-5.5Q443.75,356.17,456.7,295A39,39,0,0,1,458.11,290.93Z"/><path class="cls-12" d="M89.6,291.79c4.62.76,8.73,1.17,12.7,2.16,3.22.8,4,3.05,2.79,6.71-2.3,6.74-5,13.37-7.09,20.17Q81.38,374.52,65,428.26c-1.11,3.6-2.42,7.15-3.56,10.53-5.34,1.45-9.74-.41-14.12-1.75-2.72-.83-2.49-3.15-1.8-5.39,2.36-7.6,4.7-15.2,7.07-22.8q17-54.36,34-108.71C87.28,297.64,88.32,295.22,89.6,291.79Z"/><path class="cls-15" d="M869.18,87.88a39.32,39.32,0,0,1,15.23,2.79,48.85,48.85,0,0,1-.59,6.91q-9.5,41.28-19.14,82.53c-2.47,10.62-4.89,21.25-7.38,31.86-1.5,6.41-2.93,7.42-9.35,6.45-2.26-.34-4.48-.93-7.3-1.54a27.7,27.7,0,0,1,.26-4.29c3.72-16.93,7.51-33.85,11.26-50.78q7.61-34.34,15.2-68.69A48.28,48.28,0,0,1,869.18,87.88Z"/><path class="cls-11" d="M790.85,410.93c-5.86.81-10.94.34-15.82-3.34,4.77-21.22,9.5-42.12,14.17-63,4.41-19.8,8.74-39.61,13.16-59.41,1-4.4,2.34-5.31,6.59-4.55,3.35.59,6.64,1.48,10.65,2.4-.6,3.79-.89,7-1.62,10.14-6.09,26-12.32,52-18.36,78C796.6,384.15,793.86,397.22,790.85,410.93Z"/><path class="cls-16" d="M472.3,236.2c-6.27,4.34-12.7,8.48-18.79,13.07-9.29,7-18.32,14.35-27.53,21.47a108.8,108.8,0,0,1-9.39,6.56,18.48,18.48,0,0,1-5.95,2.36c-4.75.93-8.37-1.25-9.24-6a40.16,40.16,0,0,1-.49-11.88c.9-7.12,3.63-13.75,7.13-20,.33-.58.7-1.14.83-1.36,3.25,0,4.46,1.18,3.72,3.7-.61,2.06-1.61,4-2.42,6-2.44,6.05-4.2,12.25-3.95,18.87.08,2.16.13,4.39,2.92,5.5,3.85-.69,7-3.07,10.15-5.52,7.2-5.63,14.24-11.48,21.56-17,9.58-7.17,19.34-14.09,29.07-21a21.39,21.39,0,0,1,4.83-2.53c3-1.13,5.06-.09,5.34,3a17.08,17.08,0,0,1-.87,7.31c-2.59,7-5.48,13.85-8.4,20.7-1.29,3-2.94,5.87-4.66,9.26a24.56,24.56,0,0,0,3.58.71,59.28,59.28,0,0,0,22.91-4.14c3.48-1.34,6.61-3.1,8.14-6.83a11.86,11.86,0,0,1,1.56-2.28c3.77,2.58,4.11,3.71,2.35,6.73-2.2,3.79-5.74,6-9.65,7.52-9.89,3.8-20.09,5.85-30.75,4.82l-2.39-.24a52.94,52.94,0,0,1-4.48,5,141.16,141.16,0,0,1-13,10.71,18.42,18.42,0,0,1-8.42,2.61c-5.69.53-9.72-4.3-8.77-10a14.15,14.15,0,0,1,5.59-9.09,26.93,26.93,0,0,1,15.76-5.43c3.31-.15,6.63,0,9.94,0,7-10,12.13-20.25,14.74-31.74l.1-1.27Zm-18.51,39.24-.44-1.24c-4.15.58-8.36.86-12.41,1.82a10.79,10.79,0,0,0-7.39,6.13,5.78,5.78,0,0,0-.14,4.48c.41.79,2.65,1.18,3.88.89C444.54,285.83,449.46,281,453.79,275.44Z"/></g></g></svg>